HIERARCHY
ROOT Hips
{
 OFFSET 0.000000 0.000000 0.000000
 CHANNELS 6 Xposition Yposition Zposition Yrotation Xrotation Zrotation
 JOINT Chest
 {
  OFFSET 0.000000 9.588913 -0.003946
  CHANNELS 3 Yrotation Xrotation Zrotation
  JOINT Chest2
  {
   OFFSET 0.000000 9.541882 0.008053
   CHANNELS 3 Yrotation Xrotation Zrotation
   JOINT Chest3
   {
    OFFSET 0.000000 9.501360 0.000000
    CHANNELS 3 Yrotation Xrotation Zrotation
    JOINT Chest4
    {
     OFFSET 0.000000 9.491660 0.000000
     CHANNELS 3 Yrotation Xrotation Zrotation
     JOINT Neck
     {
      OFFSET 0.000000 14.331917 0.000000
      CHANNELS 3 Yrotation Xrotation Zrotation
      JOINT Head
      {
       OFFSET 0.000000 8.884799 0.017034
       CHANNELS 3 Yrotation Xrotation Zrotation
       End Site
       {
        OFFSET 0.000000 16.896195 0.008993
       }
      }
     }
     JOINT RightCollar
     {
      OFFSET -2.923010 9.499495 0.000000
      CHANNELS 3 Yrotation Xrotation Zrotation
      JOINT RightShoulder
      {
       OFFSET -13.795216 0.000000 0.000000
       CHANNELS 3 Yrotation Xrotation Zrotation
       JOINT RightElbow
       {
        OFFSET -30.272209 0.000000 0.000000
        CHANNELS 3 Yrotation Xrotation Zrotation
        JOINT RightWrist
        {
         OFFSET -24.478199 0.000000 0.000000
         CHANNELS 3 Yrotation Xrotation Zrotation
         End Site
         {
          OFFSET -18.090752 0.000000 0.000000
         }
        }
       }
      }
     }
     JOINT LeftCollar
     {
      OFFSET 2.923010 9.499495 0.000000
      CHANNELS 3 Yrotation Xrotation Zrotation
      JOINT LeftShoulder
      {
       OFFSET 13.795216 0.000000 0.000000
       CHANNELS 3 Yrotation Xrotation Zrotation
       JOINT LeftElbow
       {
        OFFSET 30.272209 0.000000 0.000000
        CHANNELS 3 Yrotation Xrotation Zrotation
        JOINT LeftWrist
        {
         OFFSET 24.478199 0.000000 0.000000
         CHANNELS 3 Yrotation Xrotation Zrotation
         End Site
         {
          OFFSET 18.090752 0.000000 0.000000
         }
        }
       }
      }
     }
    }
   }
  }
 }
 JOINT RightHip
 {
  OFFSET -7.826875 0.019532 0.001973
  CHANNELS 3 Yrotation Xrotation Zrotation
  JOINT RightKnee
  {
   OFFSET 0.000000 -40.546152 -0.001885
   CHANNELS 3 Yrotation Xrotation Zrotation
   JOINT RightAnkle
   {
    OFFSET 0.000000 -39.417092 -0.003189
    CHANNELS 3 Yrotation Xrotation Zrotation
    JOINT RightToe
    {
     OFFSET 0.000000 -7.579396 17.243563
     CHANNELS 3 Yrotation Xrotation Zrotation
     End Site
     {
      OFFSET 0.000000 -1.500329 6.694466
     }
    }
   }
  }
 }
 JOINT LeftHip
 {
  OFFSET 7.826875 0.019532 0.001973
  CHANNELS 3 Yrotation Xrotation Zrotation
  JOINT LeftKnee
  {
   OFFSET 0.000000 -40.546152 -0.001885
   CHANNELS 3 Yrotation Xrotation Zrotation
   JOINT LeftAnkle
   {
    OFFSET 0.000000 -39.417092 -0.003189
    CHANNELS 3 Yrotation Xrotation Zrotation
    JOINT LeftToe
    {
     OFFSET 0.000000 -7.579396 17.243563
     CHANNELS 3 Yrotation Xrotation Zrotation
     End Site
     {
      OFFSET 0.000000 -1.500329 6.694466
     }
    }
   }
  }
 }
}
MOTION
Frames: 16
Frame Time: 0.008333
-4.794159 50.390453 -14.290988 9.414848 -31.771243 -9.045933 11.392610 16.453649 3.867537 6.325767 9.538815 1.594546 7.977022 11.891016 2.167363 6.325768 9.538815 1.594546 3.118116 16.811827 -2.463514 3.877973 -7.963070 -3.331990 22.383328 -10.587824 -20.570311 -1.553712 -36.257007 42.554696 84.053116 -16.062422 20.487198 11.928530 -8.946572 -11.484369 18.529064 -4.340587 -3.523378 -7.995001 -5.431847 -79.763509 -73.520726 5.078993 -55.962485 -0.672105 16.241072 31.715590 -19.625132 -43.312122 32.462841 -130.347911 68.760213 -141.307290 -15.380182 -22.992066 10.372432 -0.255036 0.437698 -0.097095 13.916625 -67.066540 45.936327 -167.414066 62.742002 -141.049216 -7.145555 -25.753932 -2.075660 0.011968 -0.406218 0.013419
-4.790919 50.394992 -14.275985 9.402449 -31.714853 -9.068879 11.420773 16.470064 3.856444 6.330239 9.543749 1.588669 7.982529 11.897259 2.160211 6.330240 9.543749 1.588670 3.099069 16.808391 -2.468382 3.858534 -7.967404 -3.332545 22.434831 -10.591220 -20.654502 -1.481968 -36.339811 42.554123 83.865754 -15.942404 20.452130 11.948304 -8.928918 -11.511384 18.510059 -4.351111 -3.550737 -7.988530 -5.413876 -79.720408 -73.572480 4.999334 -55.992303 -0.651699 16.259052 31.738260 -19.634431 -43.354733 32.512615 -130.335908 68.756690 -141.283793 -15.402715 -22.989896 10.393886 -0.262945 0.433667 -0.100572 13.961747 -67.154956 45.958173 -167.369792 62.721135 -140.979433 -7.154698 -25.793762 -2.053238 0.011876 -0.385766 0.019762
-4.788874 50.400326 -14.258348 9.382862 -31.664113 -9.101349 11.458828 16.485522 3.860211 6.334081 9.548709 1.583499 7.987264 11.903526 2.153927 6.334081 9.548710 1.583499 3.080457 16.807772 -2.474678 3.839940 -7.968611 -3.334762 22.485562 -10.588113 -20.734594 -1.417705 -36.410960 42.549895 83.685792 -15.852754 20.423196 11.996777 -8.926818 -11.538037 18.489350 -4.357847 -3.575691 -7.978173 -5.395082 -79.678214 -73.622653 4.918023 -56.016902 -0.629976 16.273411 31.761362 -19.647354 -43.389601 32.576087 -130.337238 68.753300 -141.274530 -15.405552 -22.986747 10.401112 -0.252768 0.422618 -0.096414 13.977881 -67.246687 46.028040 -167.307396 62.689450 -140.888254 -7.162515 -25.834404 -2.035008 0.022331 -0.366732 0.030779
-4.787099 50.405663 -14.239083 9.361100 -31.612844 -9.139920 11.500522 16.497138 3.871951 6.335425 9.553824 1.577928 7.988857 11.910008 2.147078 6.335425 9.553824 1.577928 3.065281 16.809238 -2.482260 3.825395 -7.967366 -3.339217 22.537543 -10.580503 -20.809833 -1.349176 -36.466819 42.537765 83.519783 -15.794400 20.386763 12.041008 -8.929616 -11.549303 18.473616 -4.363557 -3.596253 -7.967651 -5.377979 -79.637509 -73.669023 4.834148 -56.034998 -0.612700 16.285023 31.785009 -19.667410 -43.424159 32.649518 -130.349822 68.751270 -141.277185 -15.401083 -22.979671 10.400931 -0.232362 0.405719 -0.088486 13.968356 -67.344203 46.133133 -167.225576 62.647972 -140.777340 -7.178929 -25.872414 -2.013573 0.037806 -0.350541 0.042987
-4.783711 50.410102 -14.219383 9.342558 -31.554897 -9.175021 11.537657 16.503262 3.876828 6.335706 9.558866 1.571741 7.989101 11.916416 2.139429 6.335707 9.558867 1.571741 3.051779 16.812575 -2.489503 3.812593 -7.964037 -3.343729 22.590315 -10.572262 -20.882783 -1.281334 -36.513043 42.526401 83.367139 -15.763525 20.341043 12.052467 -8.931051 -11.534219 18.458354 -4.369532 -3.611632 -7.955994 -5.362210 -79.596743 -73.716034 4.747863 -56.054445 -0.602615 16.293231 31.813484 -19.691257 -43.467351 32.716789 -130.373164 68.751763 -141.289593 -15.404508 -22.970361 10.407418 -0.223710 0.387878 -0.086328 13.965425 -67.448113 46.227133 -167.135406 62.603364 -140.659472 -7.203221 -25.905408 -1.984757 0.048842 -0.337013 0.052283
-4.785401 50.414142 -14.199588 9.278435 -31.493660 -9.220204 11.622881 16.493360 3.912882 6.336419 9.563512 1.565952 7.989892 11.922319 2.132282 6.336420 9.563512 1.565953 3.037304 16.817569 -2.497229 3.798872 -7.958931 -3.348533 22.641189 -10.564531 -20.956370 -1.221378 -36.562512 42.525007 83.220957 -15.748434 20.299292 12.022573 -8.930229 -11.495962 18.438569 -4.374067 -3.623175 -7.940350 -5.346168 -79.556275 -73.767063 4.659414 -56.080015 -0.599870 16.298595 31.846707 -19.710362 -43.509923 32.825268 -130.412531 68.753921 -141.315418 -15.372336 -22.994924 10.417264 -0.258873 0.395564 -0.102339 13.927105 -67.572110 46.398926 -167.046456 62.558367 -140.541993 -7.208073 -25.911230 -1.956706 0.042094 -0.346784 0.053472
-4.781965 50.417366 -14.179249 9.256878 -31.429146 -9.259912 11.662251 16.492389 3.918023 6.338696 9.567227 1.561718 7.992675 11.927022 2.127106 6.338696 9.567227 1.561718 3.021955 16.823745 -2.507455 3.784828 -7.952486 -3.355822 22.690398 -10.556759 -21.032753 -1.175655 -36.620497 42.537480 83.073800 -15.735750 20.270776 11.962663 -8.929669 -11.445633 18.416046 -4.373951 -3.634085 -7.925669 -5.331709 -79.515109 -73.818019 4.566171 -56.099591 -0.607680 16.304808 31.872053 -19.736991 -43.561600 32.889145 -130.455580 68.755661 -141.340142 -15.358478 -22.989881 10.420374 -0.265974 0.377116 -0.104817 13.916572 -67.690861 46.500472 -166.960483 62.511689 -140.422345 -7.227651 -25.935219 -1.935312 0.055235 -0.336498 0.064122
-4.779265 50.420260 -14.158792 9.232642 -31.364935 -9.303346 11.703289 16.490573 3.927084 6.342991 9.570903 1.558805 7.998025 11.931643 2.123640 6.342991 9.570903 1.558805 3.004968 16.829546 -2.519619 3.769489 -7.946438 -3.364797 22.737217 -10.548849 -21.111907 -1.146927 -36.682744 42.558745 82.928829 -15.720184 20.251897 11.888228 -8.940983 -11.393025 18.391615 -4.370657 -3.646969 -7.914417 -5.320204 -79.469203 -73.867154 4.467955 -56.113845 -0.627616 16.310916 31.887340 -19.763451 -43.612760 32.955596 -130.498223 68.757918 -141.360662 -15.343775 -22.986043 10.425480 -0.278300 0.360825 -0.110601 13.897043 -67.814638 46.612534 -166.880879 62.464743 -140.302729 -7.246454 -25.953886 -1.921908 0.072564 -0.329046 0.076950
-4.776238 50.422604 -14.138820 9.214838 -31.299787 -9.346411 11.737729 16.489770 3.934541 6.347306 9.576355 1.555809 8.003416 11.938483 2.120106 6.347307 9.576355 1.555810 2.986582 16.831593 -2.532778 3.752858 -7.944478 -3.374481 22.781004 -10.544299 -21.190689 -1.125658 -36.744018 42.573167 82.793803 -15.705999 20.239564 11.812192 -8.969894 -11.350562 18.367877 -4.369776 -3.663728 -7.899952 -5.312731 -79.418132 -73.914164 4.369500 -56.135434 -0.659468 16.315901 31.897587 -19.791673 -43.665383 33.018769 -130.543952 68.759472 -141.383268 -15.339918 -22.983023 10.435800 -0.290585 0.346575 -0.117463 13.879006 -67.939073 46.711681 -166.812442 62.421563 -140.192996 -7.264725 -25.964956 -1.911645 0.089622 -0.324978 0.088488
-4.773327 50.424401 -14.119818 9.205317 -31.233364 -9.390487 11.763793 16.490935 3.939809 6.351001 9.583370 1.552205 8.008030 11.947290 2.115825 6.351002 9.583369 1.552206 2.968063 16.829136 -2.546639 3.736228 -7.947376 -3.384862 22.823434 -10.546166 -21.265432 -1.104526 -36.800151 42.571556 82.670461 -15.691910 20.230958 11.745842 -9.007668 -11.324313 18.345739 -4.374276 -3.682886 -7.881030 -5.307902 -79.363272 -73.958339 4.270530 -56.164267 -0.698778 16.324193 31.903195 -19.825580 -43.718756 33.082726 -130.590537 68.758870 -141.407221 -15.345176 -22.981215 10.444445 -0.292035 0.333635 -0.119272 13.857221 -68.061200 46.799112 -166.754504 62.383844 -140.095558 -7.277932 -25.969829 -1.905512 0.104982 -0.322493 0.097806
-4.771322 50.425583 -14.102446 9.202315 -31.164100 -9.437592 11.784166 16.490847 3.944477 6.354328 9.590696 1.548563 8.012183 11.956490 2.111491 6.354328 9.590696 1.548564 2.950062 16.825130 -2.560820 3.720230 -7.951918 -3.395707 22.864487 -10.549474 -21.336095 -1.082552 -36.851262 42.560463 82.560110 -15.663490 20.216326 11.688554 -9.043632 -11.304831 18.324699 -4.382812 -3.703385 -7.864446 -5.300304 -79.302147 -74.003128 4.164116 -56.194976 -0.735244 16.337297 31.903125 -19.867592 -43.774360 33.152571 -130.633603 68.756118 -141.429009 -15.353328 -22.978454 10.448052 -0.280206 0.320578 -0.114725 13.828909 -68.183311 46.878311 -166.709415 62.351784 -140.012262 -7.283147 -25.970973 -1.903700 0.117047 -0.319852 0.104139
-4.769481 50.425974 -14.087326 9.206996 -31.090544 -9.482923 11.796427 16.489611 3.942635 6.356768 9.598042 1.544855 8.015224 11.965720 2.107052 6.356769 9.598042 1.544856 2.933787 16.820665 -2.574761 3.706036 -7.956891 -3.406714 22.909120 -10.549370 -21.407027 -1.067490 -36.896931 42.553243 82.471007 -15.605358 20.186074 11.626925 -9.069441 -11.280255 18.306231 -4.395095 -3.726520 -7.850787 -5.288729 -79.235940 -74.050307 4.052317 -56.227382 -0.767674 16.353588 31.896603 -19.912940 -43.836587 33.221947 -130.667977 68.750564 -141.442991 -15.371365 -22.971786 10.456773 -0.269028 0.307882 -0.110271 13.808236 -68.306364 46.933089 -166.677157 62.323526 -139.942184 -7.287480 -25.969373 -1.897847 0.121563 -0.318030 0.104266
-4.766846 50.425802 -14.074388 9.221433 -31.015449 -9.522290 11.800296 16.491409 3.932010 6.357294 9.605613 1.540475 8.015847 11.975255 2.101725 6.357295 9.605614 1.540475 2.919200 16.815443 -2.587621 3.693399 -7.962655 -3.416968 22.958397 -10.544313 -21.478543 -1.063534 -36.934583 42.552861 82.409226 -15.510139 20.133647 11.554839 -9.081227 -11.248281 18.289139 -4.410314 -3.751617 -7.837681 -5.276998 -79.167398 -74.097527 3.941125 -56.263067 -0.800422 16.372351 31.886320 -19.955828 -43.904228 33.279069 -130.701785 68.744483 -141.456140 -15.403143 -22.963211 10.478410 -0.273942 0.296911 -0.112629 13.807699 -68.424348 46.950414 -166.652215 62.299055 -139.879262 -7.295657 -25.968675 -1.887258 0.125444 -0.315489 0.100364
-4.764012 50.425374 -14.063636 9.243881 -30.939963 -9.559229 11.798286 16.495228 3.918121 6.356245 9.613417 1.535608 8.014485 11.985098 2.095750 6.356246 9.613417 1.535608 2.905317 16.809839 -2.598644 3.681069 -7.968869 -3.425411 23.009827 -10.533250 -21.550387 -1.062346 -36.961621 42.554545 82.372291 -15.379173 20.053812 11.478643 -9.075245 -11.214156 18.273792 -4.424618 -3.778794 -7.829159 -5.268216 -79.096352 -74.146309 3.831050 -56.298762 -0.832838 16.394308 31.869667 -19.997664 -43.973540 33.324653 -130.741214 68.740355 -141.475240 -15.430590 -22.958975 10.501222 -0.282698 0.288814 -0.116698 13.818559 -68.535083 46.941248 -166.635754 62.280768 -139.827319 -7.300567 -25.971735 -1.875622 0.128384 -0.310035 0.093941
-4.762175 50.425105 -14.054903 9.266513 -30.866194 -9.597991 11.794254 16.500671 3.904838 6.355798 9.620993 1.531000 8.013882 11.994648 2.090111 6.355799 9.620993 1.531001 2.891152 16.804349 -2.606827 3.667744 -7.975074 -3.430727 23.065408 -10.517874 -21.625009 -1.058094 -36.976683 42.557824 82.350883 -15.227300 19.949788 11.408012 -9.045846 -11.183371 18.262126 -4.437950 -3.807262 -7.826067 -5.262489 -79.026860 -74.197235 3.726486 -56.333180 -0.866218 16.415974 31.844309 -20.038229 -44.039949 33.367826 -130.779108 68.738032 -141.493998 -15.439571 -22.961384 10.517428 -0.286953 0.284262 -0.119110 13.819716 -68.639418 46.934173 -166.625733 62.264974 -139.785213 -7.296176 -25.975822 -1.866685 0.127530 -0.305711 0.085787
-4.760995 50.425300 -14.047852 9.291976 -30.796015 -9.639004 11.786842 16.508982 3.889511 6.356038 9.628298 1.527101 8.014156 12.003843 2.085373 6.356039 9.628298 1.527101 2.877198 16.799278 -2.612235 3.653969 -7.980917 -3.433106 23.122653 -10.500958 -21.700377 -1.052838 -36.986834 42.562835 82.332511 -15.080082 19.842632 11.347937 -8.999298 -11.160851 18.255072 -4.452602 -3.834760 -7.827187 -5.258599 -78.961737 -74.240975 3.627437 -56.367865 -0.900877 16.431769 31.816261 -20.076814 -44.101899 33.406853 -130.813293 68.737180 -141.508463 -15.439930 -22.967514 10.535794 -0.298588 0.282426 -0.125427 13.807215 -68.734927 46.932191 -166.616733 62.251977 -139.746612 -7.288542 -25.978554 -1.861134 0.127473 -0.303447 0.077713
